<?xml version="1.0" encoding="utf-8"?>
<!-- Generator: Adobe Illustrator 24.0.0, SVG Export Plug-In . SVG Version: 6.00 Build 0)  -->
<svg version="1.1" id="Capa_1" xmlns="http://www.w3.org/2000/svg" xmlns:xlink="http://www.w3.org/1999/xlink" x="0px" y="0px"
	 viewBox="0 0 1336.7 1718.9" style="enable-background:new 0 0 1336.7 1718.9;" xml:space="preserve">
<style type="text/css">
	.st0{fill:none;stroke:#000000;stroke-width:51;}
	.st1{fill:none;stroke:#000000;stroke-width:44;}
	.st2{fill:none;stroke:#000000;stroke-width:51;stroke-linecap:round;}
</style>
<path class="st0" d="M1075.3,347h-217v-48.1c0-22.1-17.9-40-40-40h-300c-22.1,0-40,17.9-40,40V347h-217c-40.3,0-73,32.7-73,73v1076
	c0,40.3,32.7,73,73,73h814c40.3,0,73-32.7,73-73V420C1148.3,379.7,1115.7,347,1075.3,347z"/>
<path class="st1" d="M733.3,256.9v-98.2c0-16.7-17.2-30.2-38.5-30.2h-53c-21.3,0-38.5,13.5-38.5,30.2v98.2H733.3z"/>
<line class="st2" x1="400.6" y1="741.5" x2="549.6" y2="741.5"/>
<line class="st2" x1="400.6" y1="1020.5" x2="549.6" y2="1020.5"/>
<line class="st2" x1="400.6" y1="1299.5" x2="549.6" y2="1299.5"/>
<line class="st2" x1="777.6" y1="706.1" x2="842.2" y2="797.5"/>
<line class="st2" x1="928.4" y1="620.9" x2="845" y2="799.7"/>
<line class="st2" x1="777.6" y1="985.1" x2="842.2" y2="1076.5"/>
<line class="st2" x1="928.4" y1="899.9" x2="845" y2="1078.7"/>
<line class="st2" x1="777.6" y1="1264.1" x2="842.2" y2="1355.5"/>
<line class="st2" x1="928.4" y1="1178.9" x2="845" y2="1357.7"/>
<path class="st0" d="M518.3,258.8h300c22.1,0,40,17.9,40,40v103c0,22.1-17.9,40-40,40h-300c-22.1,0-40-17.9-40-40v-103
	C478.3,276.7,496.3,258.8,518.3,258.8z"/>
</svg>
